<svg width="27" height="27" viewBox="0 0 32 32" fill="#fff"
    xmlns="http://www.w3.org/2000/svg">
    <g id="ic:sharp-arrow-forward">
        <path id="Vector" fill-rule="evenodd" clip-rule="evenodd" d="M16 1.33301C15.6178 1.33296 15.24 1.41507 14.8923 1.57379C14.5446 1.73251 14.2351 1.96412 13.9847 2.25292C13.7343 2.54173 13.549 2.88098 13.4412 3.24769C13.3334 3.6144 13.3057 3.99999 13.36 4.37834C11.4275 4.94891 9.73142 6.1293 8.52506 7.74323C7.31869 9.35717 6.66678 11.318 6.66667 13.333V23.9997H5.33333C4.97971 23.9997 4.64057 24.1401 4.39052 24.3902C4.14048 24.6402 4 24.9794 4 25.333C4 25.6866 4.14048 26.0258 4.39052 26.2758C4.64057 26.5259 4.97971 26.6663 5.33333 26.6663H26.6667C27.0203 26.6663 27.3594 26.5259 27.6095 26.2758C27.8595 26.0258 28 25.6866 28 25.333C28 24.9794 27.8595 24.6402 27.6095 24.3902C27.3594 24.1401 27.0203 23.9997 26.6667 23.9997H25.3333V13.333C25.3332 11.318 24.6813 9.35717 23.4749 7.74323C22.2686 6.1293 20.5725 4.94891 18.64 4.37834C18.6943 3.99999 18.6666 3.6144 18.5588 3.24769C18.451 2.88098 18.2657 2.54173 18.0153 2.25292C17.7649 1.96412 17.4554 1.73251 17.1077 1.57379C16.76 1.41507 16.3822 1.33296 16 1.33301ZM18.6667 29.333C18.6667 29.6866 18.5262 30.0258 18.2761 30.2758C18.0261 30.5259 17.687 30.6663 17.3333 30.6663H14.6667C14.313 30.6663 13.9739 30.5259 13.7239 30.2758C13.4738 30.0258 13.3333 29.6866 13.3333 29.333C13.3333 28.9794 13.4738 28.6402 13.7239 28.3902C13.9739 28.1401 14.313 27.9997 14.6667 27.9997H17.3333C17.687 27.9997 18.0261 28.1401 18.2761 28.3902C18.5262 28.6402 18.6667 28.9794 18.6667 29.333Z" />
    </g>
</svg>
