<svg width="30" height="30" viewBox="0 0 24 24" fill="none" xmlns="http://www.w3.org/2000/svg">
<g clip-path="url(#clip0_400_7124)">
<path d="M22.6754 24.0001C23.4068 24.0001 24 23.407 24 22.6755V1.32459C24 0.592969 23.4068 0 22.6754 0H1.32459C0.592875 0 0 0.592969 0 1.32459V22.6755C0 23.407 0.592875 24.0001 1.32459 24.0001H22.6754Z" fill="#1877F2"/>
<path d="M14.868 24.0002V14.7062H17.9878L18.4548 11.0841H14.868V8.7715C14.868 7.72281 15.1593 7.00816 16.6632 7.00816L18.5812 7.00731V3.76778C18.2493 3.72362 17.1108 3.625 15.7863 3.625C13.0209 3.625 11.1277 5.31297 11.1277 8.41291V11.0841H8V14.7062H11.1277V24.0002H14.868Z" fill="white"/>
</g>
<defs>
<clipPath id="clip0_400_7124">
<rect width="24" height="24" rx="12" fill="white"/>
</clipPath>
</defs>
</svg>
