<svg width="30" height="30" viewBox="0 0 24 25" fill="none" xmlns="http://www.w3.org/2000/svg">
<g clip-path="url(#clip0_400_7125)">
<path d="M23.9885 12.511C23.9885 11.5047 23.9069 10.7703 23.7301 10.0088H12.239V14.5508H18.984C18.8481 15.6795 18.1138 17.3794 16.4819 18.5217L16.459 18.6737L20.0923 21.4884L20.344 21.5135C22.6558 19.3784 23.9885 16.2371 23.9885 12.511Z" fill="#4285F4"/>
<path d="M12.239 24.4781C15.5435 24.4781 18.3177 23.3901 20.344 21.5135L16.4819 18.5217C15.4484 19.2424 14.0612 19.7456 12.239 19.7456C9.00248 19.7456 6.25551 17.6106 5.27629 14.6597L5.13276 14.6719L1.35483 17.5956L1.30542 17.733C3.31804 21.731 7.45214 24.4781 12.239 24.4781Z" fill="#34A853"/>
<path d="M5.27634 14.6597C5.01797 13.8982 4.86844 13.0822 4.86844 12.2391C4.86844 11.3959 5.01797 10.58 5.26275 9.81849L5.25591 9.6563L1.43062 6.68555L1.30547 6.74508C0.475969 8.40417 0 10.2673 0 12.2391C0 14.211 0.475969 16.074 1.30547 17.733L5.27634 14.6597Z" fill="#FBBC05"/>
<path d="M12.239 4.73241C14.5372 4.73241 16.0875 5.72512 16.9714 6.55472L20.4255 3.18216C18.3042 1.21031 15.5435 0 12.239 0C7.45214 0 3.31804 2.74697 1.30542 6.74503L5.2627 9.81844C6.25551 6.86747 9.00248 4.73241 12.239 4.73241Z" fill="#EB4335"/>
</g>
<defs>
<clipPath id="clip0_400_7125">
<rect width="24" height="24.5625" fill="white"/>
</clipPath>
</defs>
</svg>
