<svg xmlns="http://www.w3.org/2000/svg" width="26" height="26" viewBox="0 0 36 36">
  <g id="Group_172" data-name="Group 172" transform="translate(-16 -88)">
    <circle id="Ellipse_74" data-name="Ellipse 74" cx="18" cy="18" r="18" transform="translate(16 88)" fill="#f6f6f6"/>
    <path id="Path_1021" data-name="Path 1021" d="M4.25,2.25a4.131,4.131,0,0,1,4.25,4,4.131,4.131,0,0,1,4.25-4,4.131,4.131,0,0,1,4.25,4c0,3.332-3.436,4.507-8.083,9.811a.559.559,0,0,1-.833,0C3.436,10.76,0,9.585,0,6.253A4.131,4.131,0,0,1,4.25,2.25Z" transform="translate(26 97.75)" fill="#ff0f39"/>
  </g>
</svg>
