<svg width="22" height="22" viewBox="0 0 24 24" fill="none" xmlns="http://www.w3.org/2000/svg">
<g id="ic:sharp-arrow-forward">
<path id="Vector (Stroke)" fill-rule="evenodd" clip-rule="evenodd" d="M7.46006 2.45413C8.58235 1.98926 9.78521 1.75 11 1.75C12.2147 1.75 13.4176 1.98926 14.5399 2.45413C15.6621 2.919 16.6819 3.60036 17.5408 4.45932C18.3998 5.31828 19.0812 6.33802 19.546 7.46031C20.0109 8.58259 20.2502 9.78545 20.2502 11.0002C20.2502 12.215 20.0109 13.4178 19.546 14.5401C19.2415 15.2753 18.8441 15.9664 18.3647 16.5972L21.8838 20.1163C22.372 20.6045 22.372 21.3959 21.8838 21.8841C21.3957 22.3722 20.6042 22.3722 20.1161 21.8841L16.597 18.365C14.9966 19.5813 13.0328 20.2504 11 20.2504C8.54665 20.2504 6.19383 19.2758 4.45908 17.5411C2.72433 15.8063 1.74976 13.4535 1.74976 11.0002C1.74976 8.5469 2.72433 6.19407 4.45908 4.45932C5.31804 3.60036 6.33777 2.919 7.46006 2.45413ZM11 4.25C10.1135 4.25 9.23574 4.4246 8.41677 4.76383C7.5978 5.10306 6.85366 5.60028 6.22685 6.22709C4.96094 7.493 4.24976 9.20994 4.24976 11.0002C4.24976 12.7905 4.96094 14.5074 6.22685 15.7733C7.49275 17.0392 9.2097 17.7504 11 17.7504C12.7902 17.7504 14.5072 17.0392 15.7731 15.7733C16.3999 15.1465 16.8971 14.4024 17.2363 13.5834C17.5756 12.7644 17.7502 11.8867 17.7502 11.0002C17.7502 10.1138 17.5756 9.23599 17.2363 8.41701C16.8971 7.59804 16.3999 6.85391 15.7731 6.22709C15.1463 5.60028 14.4021 5.10306 13.5832 4.76383C12.7642 4.4246 11.8864 4.25 11 4.25Z" fill="#B5B5B5"/>
</g>
</svg>
